<svg xmlns="http://www.w3.org/2000/svg" xmlns:xlink="http://www.w3.org/1999/xlink" width="1500" zoomAndPan="magnify" viewBox="0 0 1125 749.999995" height="1000" preserveAspectRatio="xMidYMid meet" version="1.0"><path stroke-linecap="butt" transform="matrix(0.75, -0.000000000000000093, 0.000000000000000093, 0.75, -37.969326, 58.323116)" fill="none" stroke-linejoin="miter" d="M 0.000768553 0.501471 L 1567.500845 0.501471 " stroke="#606060" stroke-width="1" stroke-opacity="1" stroke-miterlimit="4"/><path stroke-linecap="butt" transform="matrix(0.75, -0.000000000000000093, 0.000000000000000093, 0.75, -37.969326, 121.323134)" fill="none" stroke-linejoin="miter" d="M 0.000768553 0.501446 L 1567.500845 0.501446 " stroke="#606060" stroke-width="1" stroke-opacity="1" stroke-miterlimit="4"/><path stroke-linecap="butt" transform="matrix(0.75, -0.000000000000000093, 0.000000000000000093, 0.75, -37.969326, 184.620261)" fill="none" stroke-linejoin="miter" d="M 0.000768553 0.501111 L 1567.500845 0.501111 " stroke="#606060" stroke-width="1" stroke-opacity="1" stroke-miterlimit="4"/><path stroke-linecap="butt" transform="matrix(0.75, -0.000000000000000093, 0.000000000000000093, 0.75, -37.969326, 247.620272)" fill="none" stroke-linejoin="miter" d="M 0.000768553 0.501096 L 1567.500845 0.501096 " stroke="#606060" stroke-width="1" stroke-opacity="1" stroke-miterlimit="4"/><path stroke-linecap="butt" transform="matrix(0.75, -0.000000000000000093, 0.000000000000000093, 0.75, -37.969326, 310.917427)" fill="none" stroke-linejoin="miter" d="M 0.000768553 0.500722 L 1567.500845 0.500722 " stroke="#606060" stroke-width="1" stroke-opacity="1" stroke-miterlimit="4"/><path stroke-linecap="butt" transform="matrix(0.75, 0, 0, 0.75, -37.969326, 373.917424)" fill="none" stroke-linejoin="miter" d="M 0.000768553 0.500726 L 1567.500845 0.500726 " stroke="#606060" stroke-width="1" stroke-opacity="1" stroke-miterlimit="4"/><path stroke-linecap="butt" transform="matrix(0.75, 0, 0, 0.75, -37.969326, 437.214599)" fill="none" stroke-linejoin="miter" d="M 0.000768553 0.500327 L 1567.500845 0.500327 " stroke="#606060" stroke-width="1" stroke-opacity="1" stroke-miterlimit="4"/><path stroke-linecap="butt" transform="matrix(0.75, 0, 0, 0.75, -24.200459, 500.214596)" fill="none" stroke-linejoin="miter" d="M 0.00165325 0.500331 L 1567.50173 0.500331 " stroke="#606060" stroke-width="1" stroke-opacity="1" stroke-miterlimit="4"/><path stroke-linecap="butt" transform="matrix(0.75, 0, 0, 0.75, -24.200459, 563.511785)" fill="none" stroke-linejoin="miter" d="M 0.00165325 0.499912 L 1567.50173 0.499912 " stroke="#606060" stroke-width="1" stroke-opacity="1" stroke-miterlimit="4"/><path stroke-linecap="butt" transform="matrix(0.75, 0, 0, 0.75, -12.65644, 626.511781)" fill="none" stroke-linejoin="miter" d="M 0.000252758 0.499916 L 1567.500329 0.499916 " stroke="#606060" stroke-width="1" stroke-opacity="1" stroke-miterlimit="4"/><path stroke-linecap="butt" transform="matrix(0.75, 0, 0, 0.75, -12.65644, 689.80897)" fill="none" stroke-linejoin="miter" d="M 0.000252758 0.499498 L 1567.500329 0.499498 " stroke="#606060" stroke-width="1" stroke-opacity="1" stroke-miterlimit="4"/><path stroke-linecap="butt" transform="matrix(0, -0.75, 0.75, 0, 12.656039, 863.182778)" fill="none" stroke-linejoin="miter" d="M -0.00108775 0.500281 L 1567.498989 0.500281 " stroke="#606060" stroke-width="1" stroke-opacity="1" stroke-miterlimit="4"/><path stroke-linecap="butt" transform="matrix(0, -0.75, 0.75, 0, 75.953211, 863.182778)" fill="none" stroke-linejoin="miter" d="M -0.00108775 0.499886 L 1567.498989 0.499886 " stroke="#606060" stroke-width="1" stroke-opacity="1" stroke-miterlimit="4"/><path stroke-linecap="butt" transform="matrix(0, -0.75, 0.75, 0, 138.953215, 875.182777)" fill="none" stroke-linejoin="miter" d="M -0.00108853 0.49988 L 1567.498988 0.49988 " stroke="#606060" stroke-width="1" stroke-opacity="1" stroke-miterlimit="4"/><path stroke-linecap="butt" transform="matrix(0, -0.75, 0.75, 0, 202.250399, 875.182777)" fill="none" stroke-linejoin="miter" d="M -0.00108853 0.499468 L 1567.498988 0.499468 " stroke="#606060" stroke-width="1" stroke-opacity="1" stroke-miterlimit="4"/><path stroke-linecap="butt" transform="matrix(0, -0.75, 0.75, 0, 265.250381, 875.182777)" fill="none" stroke-linejoin="miter" d="M -0.00108853 0.499491 L 1567.498988 0.499491 " stroke="#606060" stroke-width="1" stroke-opacity="1" stroke-miterlimit="4"/><path stroke-linecap="butt" transform="matrix(0, -0.75, 0.75, 0, 328.547566, 875.182777)" fill="none" stroke-linejoin="miter" d="M -0.00108853 0.499079 L 1567.498988 0.499079 " stroke="#606060" stroke-width="1" stroke-opacity="1" stroke-miterlimit="4"/><path stroke-linecap="butt" transform="matrix(0, -0.75, 0.75, 0, 392.219721, 899.104968)" fill="none" stroke-linejoin="miter" d="M -0.000667422 0.498706 L 1567.499409 0.498706 " stroke="#606060" stroke-width="1" stroke-opacity="1" stroke-miterlimit="4"/><path stroke-linecap="butt" transform="matrix(0, -0.75, 0.75, 0, 455.219718, 925.255871)" fill="none" stroke-linejoin="miter" d="M -0.00258879 0.49871 L 1567.502696 0.49871 " stroke="#606060" stroke-width="1" stroke-opacity="1" stroke-miterlimit="4"/><path stroke-linecap="butt" transform="matrix(0, -0.75, 0.75, 0, 518.516883, 925.255871)" fill="none" stroke-linejoin="miter" d="M -0.00258879 0.498323 L 1567.502696 0.498323 " stroke="#606060" stroke-width="1" stroke-opacity="1" stroke-miterlimit="4"/><path stroke-linecap="butt" transform="matrix(0, -0.75, 0.75, 0, 581.51688, 925.255871)" fill="none" stroke-linejoin="miter" d="M -0.00258879 0.498327 L 1567.502696 0.498327 " stroke="#606060" stroke-width="1" stroke-opacity="1" stroke-miterlimit="4"/><path stroke-linecap="butt" transform="matrix(0, -0.75, 0.75, 0, 644.814045, 925.255871)" fill="none" stroke-linejoin="miter" d="M -0.00258879 0.497941 L 1567.502696 0.497941 " stroke="#606060" stroke-width="1" stroke-opacity="1" stroke-miterlimit="4"/><path stroke-linecap="butt" transform="matrix(0, -0.75, 0.75, 0, 707.814041, 962.104965)" fill="none" stroke-linejoin="miter" d="M -0.000671515 0.497945 L 1567.499405 0.497945 " stroke="#606060" stroke-width="1" stroke-opacity="1" stroke-miterlimit="4"/><path stroke-linecap="butt" transform="matrix(0, -0.75, 0.75, 0, 771.111182, 962.104965)" fill="none" stroke-linejoin="miter" d="M -0.000671515 0.49759 L 1567.499405 0.49759 " stroke="#606060" stroke-width="1" stroke-opacity="1" stroke-miterlimit="4"/><path stroke-linecap="butt" transform="matrix(0, -0.75, 0.75, 0, 834.111179, 962.104965)" fill="none" stroke-linejoin="miter" d="M -0.000671515 0.497594 L 1567.499405 0.497594 " stroke="#606060" stroke-width="1" stroke-opacity="1" stroke-miterlimit="4"/><path stroke-linecap="butt" transform="matrix(0, -0.75, 0.75, 0, 897.408368, 962.104965)" fill="none" stroke-linejoin="miter" d="M -0.000671515 0.502384 L 1567.499405 0.502384 " stroke="#606060" stroke-width="1" stroke-opacity="1" stroke-miterlimit="4"/><path stroke-linecap="butt" transform="matrix(0, -0.75, 0.75, 0, 961.158365, 962.104965)" fill="none" stroke-linejoin="miter" d="M -0.000671515 0.502388 L 1567.499405 0.502388 " stroke="#606060" stroke-width="1" stroke-opacity="1" stroke-miterlimit="4"/><path stroke-linecap="butt" transform="matrix(0, -0.75, 0.75, 0, 1024.45553, 962.104965)" fill="none" stroke-linejoin="miter" d="M -0.000671515 0.502002 L 1567.499405 0.502002 " stroke="#606060" stroke-width="1" stroke-opacity="1" stroke-miterlimit="4"/><path stroke-linecap="butt" transform="matrix(0, -0.75, 0.75, 0, 1087.377719, 962.104965)" fill="none" stroke-linejoin="miter" d="M -0.000671515 0.501583 L 1567.499405 0.501583 " stroke="#606060" stroke-width="1" stroke-opacity="1" stroke-miterlimit="4"/></svg>