<svg xmlns="http://www.w3.org/2000/svg" xmlns:xlink="http://www.w3.org/1999/xlink" width="1480" zoomAndPan="magnify" viewBox="0 0 1110 1109.999945" height="1480" preserveAspectRatio="xMidYMid meet" version="1.0"><defs><clipPath id="121e4fb684"><path d="M 176.425781 133.316406 L 920.425781 133.316406 L 920.425781 998.816406 L 176.425781 998.816406 Z M 176.425781 133.316406 " clip-rule="nonzero"/></clipPath></defs><g clip-path="url(#121e4fb684)"><path stroke-linecap="butt" transform="matrix(0.75, 0, 0, 0.75, 176.427199, 133.315984)" fill="none" stroke-linejoin="miter" d="M -0.00188981 0.000563214 L 992.170076 0.000563214 L 992.170076 1154.235043 L -0.00188981 1154.235043 Z M -0.00188981 0.000563214 " stroke="#ffffff" stroke-width="144" stroke-opacity="1" stroke-miterlimit="4"/></g><path stroke-linecap="butt" transform="matrix(0.75, 0, 0, 0.75, 614.912659, 380.915921)" fill="none" stroke-linejoin="miter" d="M 0.00187079 40.497525 L 374.33003 40.497525 " stroke="#ffffff" stroke-width="81" stroke-opacity="1" stroke-miterlimit="4"/><path stroke-linecap="butt" transform="matrix(0, -0.75, 0.75, 0, 614.755579, 411.28775)" fill="none" stroke-linejoin="miter" d="M -0.00174935 40.497773 L 370.633701 40.497773 " stroke="#ffffff" stroke-width="81" stroke-opacity="1" stroke-miterlimit="4"/><path stroke-linecap="butt" transform="matrix(0.75, -0.00000000000000093, 0.00000000000000093, 0.75, 414.750398, 711.117443)" fill="none" stroke-linejoin="miter" d="M -0.000530224 40.499663 L 374.327629 40.499663 " stroke="#ffffff" stroke-width="81" stroke-opacity="1" stroke-miterlimit="4"/><path stroke-linecap="butt" transform="matrix(0, -0.75, 0.75, 0, 670.454678, 199.252111)" fill="none" stroke-linejoin="miter" d="M -0.0023931 40.497933 L 89.289282 40.497933 " stroke="#ffffff" stroke-width="81" stroke-opacity="1" stroke-miterlimit="4"/><path stroke-linecap="butt" transform="matrix(0, -0.75, 0.75, 0, 860.837877, 440.036076)" fill="none" stroke-linejoin="miter" d="M 0.00122615 40.497418 L 158.110616 40.497418 " stroke="#ffffff" stroke-width="81" stroke-opacity="1" stroke-miterlimit="4"/><path stroke-linecap="butt" transform="matrix(0, -0.75, 0.75, 0, 793.939107, 325.173934)" fill="none" stroke-linejoin="miter" d="M -0.00246255 40.497861 L 89.289212 40.497861 " stroke="#ffffff" stroke-width="81" stroke-opacity="1" stroke-miterlimit="4"/><path stroke-linecap="butt" transform="matrix(0, -0.75, 0.75, 0, 731.686785, 261.417847)" fill="none" stroke-linejoin="miter" d="M -0.000162927 40.500957 L 89.291512 40.500957 " stroke="#ffffff" stroke-width="81" stroke-opacity="1" stroke-miterlimit="4"/><path stroke-linecap="butt" transform="matrix(0, -0.75, 0.75, 0, 691.798332, 835.136976)" fill="none" stroke-linejoin="miter" d="M 0.000342763 40.49806 L 89.292018 40.49806 " stroke="#ffffff" stroke-width="81" stroke-opacity="1" stroke-miterlimit="4"/><path stroke-linecap="butt" transform="matrix(0, -0.75, 0.75, 0, 354.134614, 835.136976)" fill="none" stroke-linejoin="miter" d="M 0.000342763 40.497602 L 89.292018 40.497602 " stroke="#ffffff" stroke-width="81" stroke-opacity="1" stroke-miterlimit="4"/><path stroke-linecap="butt" transform="matrix(0.75, 0, 0, 0.75, 307.739942, 365.328931)" fill="none" stroke-linejoin="miter" d="M -0.00221411 40.498929 L 271.133227 40.498929 " stroke="#ffffff" stroke-width="81" stroke-opacity="1" stroke-miterlimit="4"/><path stroke-linecap="butt" transform="matrix(0, -0.75, 0.75, 0, 380.815452, 495.597247)" fill="none" stroke-linejoin="miter" d="M -0.000545942 40.501276 L 271.129687 40.501276 " stroke="#ffffff" stroke-width="81" stroke-opacity="1" stroke-miterlimit="4"/><path stroke-linecap="butt" transform="matrix(-0.75, 0, 0, -0.75, 920.559328, 193.315978)" fill="none" stroke-linejoin="miter" d="M 0.000978374 40.499433 L 250.954126 40.499433 " stroke="#000000" stroke-width="81" stroke-opacity="1" stroke-miterlimit="4"/><path stroke-linecap="butt" transform="matrix(0, 0.75, -0.75, 0, 921.587511, 136.962272)" fill="none" stroke-linejoin="miter" d="M -0.00177974 40.502102 L 250.956576 40.502102 " stroke="#000000" stroke-width="81" stroke-opacity="1" stroke-miterlimit="4"/></svg>