<svg xmlns="http://www.w3.org/2000/svg" xmlns:xlink="http://www.w3.org/1999/xlink" width="1480" zoomAndPan="magnify" viewBox="0 0 1110 1109.999945" height="1480" preserveAspectRatio="xMidYMid meet" version="1.0"><defs><clipPath id="6b6f59953f"><path d="M 176.425781 133.316406 L 920.425781 133.316406 L 920.425781 998.816406 L 176.425781 998.816406 Z M 176.425781 133.316406 " clip-rule="nonzero"/></clipPath></defs><g clip-path="url(#6b6f59953f)"><path stroke-linecap="butt" transform="matrix(0.75, 0, 0, 0.75, 176.427199, 133.315941)" fill="none" stroke-linejoin="miter" d="M -0.00188981 0.000620814 L 992.170076 0.000620814 L 992.170076 1154.235101 L -0.00188981 1154.235101 Z M -0.00188981 0.000620814 " stroke="#000000" stroke-width="144" stroke-opacity="1" stroke-miterlimit="4"/></g><path stroke-linecap="butt" transform="matrix(0.75, 0, 0, 0.75, 614.912659, 380.915864)" fill="none" stroke-linejoin="miter" d="M 0.00187079 40.497602 L 374.33003 40.497602 " stroke="#000000" stroke-width="81" stroke-opacity="1" stroke-miterlimit="4"/><path stroke-linecap="butt" transform="matrix(0, -0.75, 0.75, 0, 614.755579, 411.287774)" fill="none" stroke-linejoin="miter" d="M -0.00171735 40.497773 L 370.633733 40.497773 " stroke="#000000" stroke-width="81" stroke-opacity="1" stroke-miterlimit="4"/><path stroke-linecap="butt" transform="matrix(0.75, -0.00000000000000093, 0.00000000000000093, 0.75, 414.750398, 711.117515)" fill="none" stroke-linejoin="miter" d="M -0.000530224 40.499567 L 374.327629 40.499567 " stroke="#000000" stroke-width="81" stroke-opacity="1" stroke-miterlimit="4"/><path stroke-linecap="butt" transform="matrix(0, -0.75, 0.75, 0, 670.454678, 199.252169)" fill="none" stroke-linejoin="miter" d="M -0.0023163 40.497933 L 89.289359 40.497933 " stroke="#000000" stroke-width="81" stroke-opacity="1" stroke-miterlimit="4"/><path stroke-linecap="butt" transform="matrix(0, -0.75, 0.75, 0, 860.837877, 440.036124)" fill="none" stroke-linejoin="miter" d="M 0.00129015 40.497418 L 158.11068 40.497418 " stroke="#000000" stroke-width="81" stroke-opacity="1" stroke-miterlimit="4"/><path stroke-linecap="butt" transform="matrix(0, -0.75, 0.75, 0, 793.939107, 325.173963)" fill="none" stroke-linejoin="miter" d="M -0.00242415 40.497861 L 89.289251 40.497861 " stroke="#000000" stroke-width="81" stroke-opacity="1" stroke-miterlimit="4"/><path stroke-linecap="butt" transform="matrix(0, -0.75, 0.75, 0, 731.686785, 261.417907)" fill="none" stroke-linejoin="miter" d="M -0.0000829274 40.500957 L 89.291592 40.500957 " stroke="#000000" stroke-width="81" stroke-opacity="1" stroke-miterlimit="4"/><path stroke-linecap="butt" transform="matrix(0, -0.75, 0.75, 0, 691.798332, 835.136976)" fill="none" stroke-linejoin="miter" d="M 0.000342763 40.49806 L 89.292018 40.49806 " stroke="#000000" stroke-width="81" stroke-opacity="1" stroke-miterlimit="4"/><path stroke-linecap="butt" transform="matrix(0, -0.75, 0.75, 0, 354.134614, 835.136976)" fill="none" stroke-linejoin="miter" d="M 0.000342763 40.497602 L 89.292018 40.497602 " stroke="#000000" stroke-width="81" stroke-opacity="1" stroke-miterlimit="4"/><path stroke-linecap="butt" transform="matrix(0.75, 0, 0, 0.75, 307.739942, 365.328991)" fill="none" stroke-linejoin="miter" d="M -0.00221411 40.498849 L 271.133227 40.498849 " stroke="#000000" stroke-width="81" stroke-opacity="1" stroke-miterlimit="4"/><path stroke-linecap="butt" transform="matrix(0, -0.75, 0.75, 0, 380.815452, 495.597247)" fill="none" stroke-linejoin="miter" d="M -0.000545942 40.501276 L 271.129687 40.501276 " stroke="#000000" stroke-width="81" stroke-opacity="1" stroke-miterlimit="4"/><path stroke-linecap="butt" transform="matrix(-0.75, 0, 0, -0.75, 920.559328, 193.31595)" fill="none" stroke-linejoin="miter" d="M 0.000978374 40.499395 L 250.954126 40.499395 " stroke="#ffffff" stroke-width="81" stroke-opacity="1" stroke-miterlimit="4"/><path stroke-linecap="butt" transform="matrix(0, 0.75, -0.75, 0, 921.587511, 136.962258)" fill="none" stroke-linejoin="miter" d="M -0.00176054 40.502102 L 250.956596 40.502102 " stroke="#ffffff" stroke-width="81" stroke-opacity="1" stroke-miterlimit="4"/></svg>