<?xml version="1.0" ?><svg viewBox="0 0 64 64" xmlns="http://www.w3.org/2000/svg"><title/><g data-name="Layer 21" id="Layer_21"><path d="M39.75,33.21a2.89,2.89,0,1,1-2.89-2.89A2.89,2.89,0,0,1,39.75,33.21ZM26.94,30.32a2.89,2.89,0,1,0,2.89,2.89A2.89,2.89,0,0,0,26.94,30.32ZM63.86,32a31.73,31.73,0,0,1-3.37,14.26A10.13,10.13,0,0,0,46.18,60.55,31.9,31.9,0,1,1,63.86,32ZM44,23.05a1,1,0,0,0-.36-.42,14.64,14.64,0,0,0-7.44-2.41l-.06.23c4.25,1.15,5.91,2.54,6.44,3.11a.06.06,0,0,1-.08.1C38.18,21.3,32,21.43,32,21.43s-6.21-.13-10.55,2.23c-.06,0-.12,0-.07-.1.53-.57,2.19-2,6.44-3.11l-.06-.23a14.64,14.64,0,0,0-7.44,2.41,1,1,0,0,0-.36.42c-.68,1.49-4,9.23-3.68,15.69,0,0,2.09,3.87,8.05,4.19a.24.24,0,0,0,.21-.09l1.33-1.71a.23.23,0,0,0-.07-.35c-.89-.47-3.93-2.14-5-3.76A23.57,23.57,0,0,0,32,40.59,23.58,23.58,0,0,0,43.21,37c-1.11,1.62-4.15,3.29-5,3.76a.23.23,0,0,0-.07.35l1.33,1.71a.24.24,0,0,0,.21.09c6-.32,8-4.19,8-4.19C48.05,32.28,44.69,24.54,44,23.05ZM60.13,53.86a6.34,6.34,0,1,1-6.34-6.34A6.34,6.34,0,0,1,60.13,53.86Zm-3.51-2.29a1,1,0,0,0-1.39.26L53.3,54.66l-1.08-1a1,1,0,0,0-1.42,0,1,1,0,0,0,0,1.41l1.93,1.88a1,1,0,0,0,.7.28h.1a1,1,0,0,0,.73-.43L56.89,53A1,1,0,0,0,56.62,51.57Z"/></g></svg>